<?xml version="1.0" standalone="no"?>
<!DOCTYPE svg PUBLIC "-//W3C//DTD SVG 20010904//EN"
 "http://www.w3.org/TR/2001/REC-SVG-20010904/DTD/svg10.dtd">
<svg version="1.0" xmlns="http://www.w3.org/2000/svg"
 width="998.000000pt" height="998.000000pt" viewBox="0 0 998.000000 998.000000"
 preserveAspectRatio="xMidYMid meet">

<g transform="translate(0.000000,998.000000) scale(0.100000,-0.100000)"
fill="#000000" stroke="none">
<path d="M5819 6573 c-3 -23 3 -71 12 -95 8 -19 8 -38 -1 -65 -18 -58 -34 -93
-42 -93 -5 0 -8 -6 -8 -13 0 -7 -8 -22 -18 -33 -10 -10 -29 -35 -42 -54 -24
-34 -136 -144 -215 -211 -22 -19 -47 -41 -55 -49 -8 -9 -31 -27 -50 -40 -19
-13 -42 -31 -50 -40 -8 -9 -31 -27 -50 -40 -19 -13 -37 -27 -40 -30 -3 -3 -21
-17 -40 -30 -19 -13 -41 -30 -48 -37 -7 -7 -17 -13 -21 -13 -5 0 -26 -16 -47
-35 -21 -19 -42 -35 -46 -35 -5 0 -18 -9 -30 -20 -12 -11 -28 -20 -35 -20 -7
0 -13 -3 -13 -8 0 -4 -18 -18 -40 -32 -22 -14 -40 -28 -40 -32 0 -4 -9 -10
-20 -13 -11 -3 -26 -12 -32 -18 -7 -7 -39 -28 -70 -47 -32 -19 -58 -38 -58
-42 0 -4 -6 -8 -13 -8 -7 0 -23 -9 -35 -20 -12 -11 -26 -20 -33 -20 -6 0 -19
-8 -28 -18 -9 -9 -28 -23 -43 -31 -16 -8 -28 -18 -28 -23 0 -4 -9 -8 -20 -8
-11 0 -20 -4 -20 -10 0 -5 -6 -10 -13 -10 -7 0 -22 -8 -33 -17 -10 -10 -31
-24 -46 -32 -16 -8 -28 -18 -28 -21 0 -4 -13 -13 -30 -20 -16 -7 -30 -16 -30
-21 0 -4 -8 -10 -19 -14 -10 -3 -31 -17 -47 -30 -16 -14 -36 -25 -44 -25 -8 0
-26 -9 -39 -19 -32 -24 -51 -17 -51 20 0 43 -20 79 -72 130 -27 26 -48 55 -48
67 0 11 -4 22 -9 24 -9 3 -51 120 -51 142 0 8 -5 16 -11 18 -6 2 -11 33 -11
71 -1 37 -5 67 -10 67 -4 0 -8 14 -8 30 0 17 -4 30 -10 30 -5 0 -10 12 -10 26
0 15 -11 37 -28 52 -39 39 -60 92 -77 200 -4 23 -11 42 -15 42 -13 0 -4 94 9
98 6 2 11 12 11 23 0 10 5 19 10 19 6 0 10 8 10 18 1 26 21 47 65 66 22 10 48
22 57 27 10 5 27 9 38 9 11 0 20 5 20 10 0 6 7 10 15 10 8 0 23 4 33 9 9 5 28
13 42 19 51 20 125 57 128 65 2 4 13 7 25 7 12 0 38 14 57 30 19 16 39 30 43
30 10 0 37 26 37 34 0 9 -75 7 -85 -2 -6 -5 -44 -19 -85 -31 -41 -13 -83 -27
-92 -32 -10 -5 -25 -9 -33 -9 -9 0 -35 -9 -57 -20 -23 -11 -48 -20 -56 -20
-14 0 -125 -34 -167 -51 -11 -4 -36 -10 -55 -13 -19 -3 -57 -10 -85 -16 -27
-6 -74 -13 -103 -17 -51 -5 -74 -19 -55 -32 20 -13 39 -89 50 -198 3 -29 9
-53 13 -53 4 0 10 -24 13 -52 3 -29 9 -68 12 -85 7 -34 -13 -123 -27 -123 -4
0 -8 -9 -8 -20 0 -11 -3 -20 -7 -20 -9 0 -33 -49 -33 -67 0 -7 -4 -13 -10 -13
-5 0 -10 -11 -10 -24 0 -14 -4 -28 -10 -31 -5 -3 -10 -19 -10 -36 0 -16 -4
-29 -9 -29 -11 0 -21 -68 -27 -194 -6 -104 -14 -126 -71 -184 -13 -13 -23 -27
-23 -31 0 -5 -16 -26 -35 -47 -19 -21 -35 -44 -35 -51 0 -7 -3 -13 -7 -13 -5
0 -19 -18 -33 -40 -13 -22 -28 -40 -32 -40 -4 0 -8 -6 -8 -12 0 -7 -11 -26
-25 -42 -13 -16 -27 -36 -30 -46 -3 -10 -19 -23 -35 -30 -17 -7 -30 -16 -30
-21 0 -5 -6 -9 -13 -9 -7 0 -23 -9 -35 -20 -12 -11 -27 -20 -34 -20 -8 0 -20
-9 -28 -20 -8 -11 -19 -20 -25 -20 -5 0 -23 -11 -39 -25 -16 -14 -32 -25 -36
-25 -4 0 -20 -11 -36 -25 -16 -14 -35 -25 -41 -25 -7 0 -13 -4 -13 -9 0 -5
-13 -14 -30 -21 -16 -7 -30 -16 -30 -20 0 -3 -12 -13 -27 -21 -16 -8 -35 -21
-43 -29 -8 -8 -27 -21 -42 -29 -16 -8 -28 -18 -28 -23 0 -4 -6 -8 -14 -8 -7 0
-26 -12 -42 -27 -16 -16 -42 -34 -57 -42 -15 -8 -27 -18 -27 -23 0 -4 -6 -8
-12 -8 -7 0 -26 -11 -42 -25 -16 -14 -32 -25 -36 -25 -5 0 -23 -14 -41 -31
-18 -16 -45 -33 -61 -36 -15 -3 -28 -9 -28 -14 0 -5 -7 -9 -15 -9 -9 0 -27
-11 -41 -25 -14 -14 -29 -25 -35 -25 -12 0 -209 -194 -209 -206 0 -5 -14 -25
-30 -44 -16 -19 -30 -39 -30 -43 0 -4 -9 -17 -20 -29 -11 -12 -20 -28 -20 -35
0 -7 -3 -13 -8 -13 -4 0 -12 -12 -18 -27 -7 -16 -18 -43 -25 -60 -8 -18 -17
-33 -21 -33 -5 0 -8 -9 -8 -20 0 -11 -4 -20 -10 -20 -5 0 -10 -9 -10 -20 0
-11 -3 -20 -7 -20 -9 0 -33 -49 -33 -67 0 -7 -4 -13 -8 -13 -4 0 -14 -28 -21
-62 -13 -61 -21 -94 -41 -160 -5 -18 -14 -71 -19 -118 -6 -47 -13 -107 -16
-135 -9 -69 -23 -196 -30 -280 -3 -38 -10 -79 -15 -90 -5 -11 -11 -42 -14 -70
-3 -27 -10 -77 -16 -110 -26 -157 -31 -194 -36 -240 -3 -27 -9 -59 -14 -70 -5
-11 -11 -40 -14 -65 -12 -103 -18 -136 -26 -155 -5 -11 -12 -51 -14 -90 -3
-38 -10 -110 -16 -160 -6 -49 -15 -133 -20 -185 -5 -52 -14 -131 -19 -175 -6
-44 -15 -118 -20 -165 -6 -47 -14 -119 -20 -160 -46 -351 -52 -400 -62 -500
-5 -52 -14 -140 -18 -195 -5 -55 -13 -135 -17 -178 l-7 -77 4402 0 4401 0 0
1383 c0 831 -4 1387 -9 1393 -5 5 -12 41 -15 79 -11 158 -26 237 -70 370 -26
77 -51 148 -56 157 -6 10 -10 25 -10 33 0 8 -5 25 -12 38 -24 47 -28 57 -28
72 0 8 -4 15 -10 15 -5 0 -10 9 -10 20 0 11 -3 20 -7 20 -9 0 -33 49 -33 67 0
7 -3 13 -8 13 -4 0 -13 15 -21 33 -8 17 -27 51 -43 74 -15 23 -28 46 -28 50 0
5 -8 18 -18 29 -10 10 -28 34 -41 53 -23 32 -102 121 -147 165 -56 55 -121
101 -156 113 -10 3 -18 9 -18 14 0 5 -6 9 -14 9 -17 0 -95 40 -114 58 -7 6
-17 12 -21 12 -4 0 -21 11 -37 25 -16 14 -33 25 -37 25 -4 0 -17 9 -29 20 -12
11 -28 20 -35 20 -7 0 -13 4 -13 8 0 4 -14 16 -30 26 -17 9 -41 27 -53 39 -12
13 -38 33 -57 47 -19 13 -41 30 -48 37 -7 7 -17 13 -22 13 -4 0 -22 14 -40 30
-18 17 -35 30 -39 30 -3 0 -28 20 -56 45 -27 25 -55 45 -62 45 -7 0 -13 4 -13
8 0 5 -12 15 -27 23 -16 8 -37 22 -47 32 -11 9 -26 17 -33 17 -7 0 -13 4 -13
8 0 5 -12 15 -27 23 -16 8 -30 17 -33 20 -12 14 -100 69 -109 69 -6 0 -11 5
-11 10 0 6 -9 10 -20 10 -11 0 -20 4 -20 9 0 5 -13 14 -30 21 -16 7 -30 16
-30 21 0 5 -9 9 -19 9 -11 0 -21 3 -23 8 -2 6 -161 91 -235 126 -13 6 -23 14
-23 19 0 4 -6 7 -13 7 -7 0 -22 8 -33 18 -28 24 -61 42 -79 42 -8 0 -15 5 -15
10 0 6 -9 10 -20 10 -11 0 -20 5 -20 10 0 6 -9 10 -20 10 -11 0 -20 5 -20 10
0 6 -9 10 -19 10 -11 0 -23 5 -26 10 -3 6 -17 10 -30 10 -13 0 -27 5 -30 10
-3 6 -17 10 -31 10 -13 0 -24 5 -24 10 0 6 -7 10 -15 10 -8 0 -43 14 -77 30
-34 17 -66 30 -72 30 -6 0 -38 14 -71 30 -33 17 -65 30 -72 30 -7 0 -13 5 -13
10 0 6 -6 10 -13 10 -8 0 -27 6 -43 14 -16 8 -47 22 -69 32 -65 29 -95 53 -95
78 0 22 -57 90 -200 237 -84 87 -110 116 -140 159 -34 49 -150 160 -166 160
-8 0 -14 5 -14 10 0 6 -9 10 -19 10 -11 0 -23 5 -26 10 -3 6 -22 10 -41 10
-19 0 -34 4 -34 9 0 4 -31 11 -69 15 -72 7 -111 28 -111 60 0 9 -4 16 -10 16
-5 0 -10 7 -10 16 0 17 -61 137 -72 142 -5 2 -8 12 -8 23 0 10 -4 19 -10 19
-5 0 -10 7 -10 14 0 8 -19 35 -43 60 -30 33 -51 46 -70 46 -15 0 -27 -3 -28
-7z"/>
</g>
</svg>
